<svg width="482" height="510" viewBox="0 0 482 510" fill="none" xmlns="http://www.w3.org/2000/svg">
<path d="M482 0.0583496C482 165.013 482 329.918 482 494.872C479.076 493.663 476.151 492.504 473.277 491.193C417.662 466.448 364.466 482.978 309.254 498.552C281.321 506.414 253.79 513.772 224.848 506.514C186.427 496.888 158.695 474.108 141.097 438.628C135.854 428.044 130.206 417.51 123.752 407.632C107.869 383.441 86.793 364.592 62.5905 348.716C28.9591 326.793 8.99197 295.495 1.98333 256.033C-4.01688 222.417 3.84894 184.769 23.211 156.597C39.5981 132.758 64.1535 114.967 91.8856 106.853C104.239 103.275 117.097 101.561 129.954 101.914C140.644 102.166 151.283 103.728 161.871 104.938C182.796 107.256 203.721 109.726 224.647 112.145C253.286 115.421 282.077 119.302 310.969 118.294C381.156 115.824 443.427 75.0516 475.042 12.8092C477.26 8.47493 479.681 4.29184 482 0.0583496Z" fill="#3E91FF" fill-opacity="0.1"/>
</svg>
