<svg width="64" height="64" viewBox="0 0 64 64" fill="none" xmlns="http://www.w3.org/2000/svg">
<g id="Group 1000000793">
<circle id="Ellipse 5" cx="32" cy="32" r="32" fill="#E0EEFF"/>
<path id="Vector (Stroke)" fill-rule="evenodd" clip-rule="evenodd" d="M23.6 20C24.2627 20 24.8 20.5373 24.8 21.2V24.8H26V23.6C26 22.9373 26.5373 22.4 27.2 22.4C27.8627 22.4 28.4 22.9373 28.4 23.6V24.8H29.6V23.6C29.6 22.9373 30.1373 22.4 30.8 22.4C31.4627 22.4 32 22.9373 32 23.6V24.8H33.2V23.6C33.2 22.9373 33.7373 22.4 34.4 22.4C35.0627 22.4 35.6 22.9373 35.6 23.6V24.8H39.2V21.2C39.2 20.5373 39.7373 20 40.4 20C41.0627 20 41.6 20.5373 41.6 21.2V41.6H42.8C43.4627 41.6 44 42.1373 44 42.8C44 43.4627 43.4627 44 42.8 44H21.2C20.5373 44 20 43.4627 20 42.8C20 42.1373 20.5373 41.6 21.2 41.6H22.4V21.2C22.4 20.5373 22.9373 20 23.6 20ZM24.8 27.2V34.4H26V33.2C26 32.5373 26.5373 32 27.2 32C27.8627 32 28.4 32.5373 28.4 33.2V34.4H29.6V33.2C29.6 32.5373 30.1373 32 30.8 32C31.4627 32 32 32.5373 32 33.2V34.4H35.6V33.2C35.6 32.5373 36.1373 32 36.8 32C37.4627 32 38 32.5373 38 33.2V34.4H39.2V27.2H35.6V28.4C35.6 29.0627 35.0627 29.6 34.4 29.6C33.7373 29.6 33.2 29.0627 33.2 28.4V27.2H32V28.4C32 29.0627 31.4627 29.6 30.8 29.6C30.1373 29.6 29.6 29.0627 29.6 28.4V27.2H28.4V28.4C28.4 29.0627 27.8627 29.6 27.2 29.6C26.5373 29.6 26 29.0627 26 28.4V27.2H24.8ZM39.2 36.8H38V38C38 38.6627 37.4627 39.2 36.8 39.2C36.1373 39.2 35.6 38.6627 35.6 38V36.8H32V38C32 38.6627 31.4627 39.2 30.8 39.2C30.1373 39.2 29.6 38.6627 29.6 38V36.8H28.4V38C28.4 38.6627 27.8627 39.2 27.2 39.2C26.5373 39.2 26 38.6627 26 38V36.8H24.8V41.6H39.2V36.8Z" fill="#3E91FF"/>
</g>
</svg>
