<svg width="64" height="64" viewBox="0 0 64 64" fill="none" xmlns="http://www.w3.org/2000/svg">
<g id="Group 1000000794">
<circle id="Ellipse 5" cx="32" cy="32" r="32" fill="#E0EEFF"/>
<path id="Vector (Stroke)" fill-rule="evenodd" clip-rule="evenodd" d="M30.8 21.1988C30.8 20.5367 31.3373 20 32 20C35.1826 20 38.2348 21.263 40.4853 23.5112C42.7357 25.7594 44 28.8086 44 31.988C44 32.6501 43.4627 33.1868 42.8 33.1868C42.1373 33.1868 41.6 32.6501 41.6 31.988C41.6 29.4445 40.5886 27.0051 38.7882 25.2066C36.9879 23.408 34.5461 22.3976 32 22.3976C31.3373 22.3976 30.8 21.8609 30.8 21.1988ZM24.812 22.4216C24.1752 22.4216 23.612 23.0137 23.612 23.6204V24.8192H26.012V23.6204C26.012 23.0137 25.4488 22.4216 24.812 22.4216ZM28.412 23.6204C28.412 21.7431 26.8272 20.024 24.812 20.024C22.7968 20.024 21.212 21.7431 21.212 23.6204V28.4156C21.212 29.0777 21.7493 29.6144 22.412 29.6144C23.0747 29.6144 23.612 29.0777 23.612 28.4156V27.2168H26.012V28.4156C26.012 29.0777 26.5493 29.6144 27.212 29.6144C27.8747 29.6144 28.412 29.0777 28.412 28.4156V23.6204ZM21.2 30.7892C21.8627 30.7892 22.4 31.3259 22.4 31.988C22.4 34.5315 23.4114 36.9709 25.2118 38.7695C27.0121 40.568 29.4539 41.5784 32 41.5784C32.6627 41.5784 33.2 42.1151 33.2 42.7772C33.2 43.4393 32.6627 43.976 32 43.976C28.8174 43.976 25.7652 42.713 23.5147 40.4648C21.2643 38.2166 20 35.1674 20 31.988C20 31.3259 20.5373 30.7892 21.2 30.7892ZM40.412 37.4066C40.412 37.0484 40.1473 36.8033 39.8263 36.8071L39.812 36.8073L38.012 36.8072V38.006L39.812 38.006C40.1573 38.006 40.412 37.7515 40.412 37.4066ZM42.4611 38.8257C42.6853 38.4045 42.812 37.9218 42.812 37.4066C42.812 35.7534 41.4969 34.3938 39.8057 34.4096H36.812C36.1493 34.4096 35.612 34.9463 35.612 35.6084V42.8012C35.612 43.4633 36.1493 44 36.812 44H40.412C41.9564 44 43.2388 42.8041 43.3759 41.2949C43.3997 41.2002 43.412 41.1023 43.412 41.003C43.412 40.1471 43.0433 39.3728 42.4611 38.8257ZM38.012 40.4036V41.6024H40.412C40.7213 41.6024 40.988 41.3359 40.988 41.027C40.988 40.9771 40.9911 40.9275 40.9972 40.8784C40.935 40.6163 40.6843 40.4036 40.412 40.4036H38.012Z" fill="#3E91FF"/>
</g>
</svg>
