<svg width="64" height="64" viewBox="0 0 64 64" fill="none" xmlns="http://www.w3.org/2000/svg">
<circle cx="32" cy="32" r="32" fill="#E0EEFF"/>
<g clip-path="url(#clip0_48_845)">
<path fill-rule="evenodd" clip-rule="evenodd" d="M26.239 21.4708C27.9494 20.5327 29.9141 20 32 20C38.6276 20 44 25.3724 44 32H42.9091L44 31.9984C44 31.999 44 31.9995 44 32C44.0026 34.0103 43.498 35.9888 42.533 37.7524C42.2438 38.2809 41.5808 38.4749 41.0523 38.1857C40.5238 37.8965 40.3298 37.2336 40.619 36.705C41.4081 35.2631 41.8205 33.6453 41.8182 32.0016L41.8182 32C41.8182 26.5774 37.4226 22.1818 32 22.1818C30.2895 22.1818 28.6847 22.6178 27.2882 23.3838C26.76 23.6735 26.0969 23.4801 25.8071 22.9519C25.5174 22.4236 25.7108 21.7605 26.239 21.4708ZM21.4104 21.4104C21.8365 20.9844 22.5272 20.9844 22.9532 21.4104L30.3957 28.853C30.4193 28.8745 30.442 28.8972 30.4637 28.921L42.5896 41.0468C43.0156 41.4728 43.0156 42.1635 42.5896 42.5896C42.1635 43.0156 41.4728 43.0156 41.0468 42.5896L39.679 41.2218C37.5328 43.0129 34.8163 44.0034 31.9987 44L32 42.9091V44C31.9996 44 31.9991 44 31.9987 44C25.3717 43.9993 20 38.6271 20 32M22.7782 24.3209L21.4104 22.9532C20.9844 22.5272 20.9844 21.8365 21.4104 21.4104M24.3286 25.8714C22.943 27.6016 22.1791 29.7611 22.1818 31.9987L22.1818 32C22.1818 37.4226 26.5774 41.8182 32 41.8182H32.0013C34.2389 41.8209 36.3984 41.057 38.1286 39.6714L34.8209 36.3636H34.1818C33.5793 36.3636 33.0909 35.8752 33.0909 35.2727V34.6337L30.9091 32.4519V35.2727C30.9091 35.8752 30.4207 36.3636 29.8182 36.3636C29.2157 36.3636 28.7273 35.8752 28.7273 35.2727V34.1818H27.6364V35.2727C27.6364 35.8752 27.1479 36.3636 26.5455 36.3636C25.943 36.3636 25.4545 35.8752 25.4545 35.2727V30.364C25.4545 30.3638 25.4545 30.3641 25.4545 30.364C25.4545 29.9047 25.5703 29.4526 25.7914 29.0501C25.9893 28.69 26.2656 28.3797 26.5992 28.142L24.3286 25.8714ZM28.2847 29.8275C28.2396 29.8188 28.1935 29.8159 28.1473 29.8188C28.0556 29.8246 27.9669 29.8535 27.8894 29.9027C27.8118 29.952 27.748 30.02 27.7037 30.1005C27.6595 30.1811 27.6363 30.2714 27.6364 30.3633V32H28.7273V30.3636C28.7273 30.3277 28.724 30.2934 28.718 30.2608L28.2847 29.8275ZM33.0909 28.7273C33.0909 28.1248 33.5793 27.6364 34.1818 27.6364H35.2727C36.1407 27.6364 36.9731 27.9812 37.5869 28.5949C38.2006 29.2087 38.5454 30.0411 38.5454 30.9091V33.0909C38.5454 33.6934 38.057 34.1818 37.4545 34.1818C36.852 34.1818 36.3636 33.6934 36.3636 33.0909V30.9091C36.3636 30.6198 36.2487 30.3423 36.0441 30.1377C35.8395 29.9331 35.562 29.8182 35.2727 29.8182C35.2727 30.4207 34.7843 30.9091 34.1818 30.9091C33.5793 30.9091 33.0909 30.4207 33.0909 29.8182V28.7273Z" fill="#3E91FF"/>
</g>
<defs>
<clipPath id="clip0_48_845">
<rect width="24" height="24" fill="white" transform="translate(20 20)"/>
</clipPath>
</defs>
</svg>
