<svg width="18" height="18" viewBox="0 0 18 18" fill="none" xmlns="http://www.w3.org/2000/svg">
<g id="Vector">
<path d="M2.16333 4.33425C3.3581 4.33425 4.32665 3.36399 4.32665 2.16712C4.32665 0.970254 3.3581 0 2.16333 0C0.968554 0 0 0.970254 0 2.16712C0 3.36399 0.968554 4.33425 2.16333 4.33425Z" fill="#FAFAFA"/>
<path d="M6.36965 5.97583V17.999H10.0961V12.0533C10.0961 10.4844 10.3908 8.96504 12.3326 8.96504C14.2478 8.96504 14.2715 10.7588 14.2715 12.1523V18H18V11.4065C18 8.16772 17.3039 5.67869 13.525 5.67869C11.7107 5.67869 10.4946 6.67609 9.99727 7.61999H9.94685V5.97583H6.36965ZM0.296907 5.97583H4.02934V17.999H0.296907V5.97583Z" fill="#FAFAFA"/>
</g>
</svg>
