<svg width="128" height="40" viewBox="0 0 128 40" fill="none" xmlns="http://www.w3.org/2000/svg">
<g id="Asset 1 1" clip-path="url(#clip0_1_27)">
<g id="Layer 1">
<g id="Group">
<g id="Group_2">
<g id="Group_3">
<g id="Group_4">
<path id="Vector" d="M85.8678 9.69373H80.6462V31.6381H85.8678V9.69373Z" fill="white"/>
<path id="Vector_2" d="M72.5457 0.960938H67.3813V9.5701H61.1914L58.8226 15.1447H67.3813V21.8207C67.3813 23.175 67.6208 24.4451 68.0945 25.6308C68.5683 26.8165 69.219 27.8617 70.052 28.7553C70.8797 29.6488 71.8481 30.3512 72.9465 30.8682C74.0502 31.3796 75.2267 31.6381 76.4762 31.6381H78.9126V26.0635H76.4762C75.9296 26.0635 75.4194 25.9511 74.9404 25.7263C74.4563 25.5015 74.0398 25.1981 73.6858 24.8159C73.3318 24.4338 73.0506 23.9843 72.8528 23.4729C72.6498 22.9615 72.5509 22.4108 72.5509 21.8207V15.302H78.9178V9.72744H72.5509V0.960938H72.5457Z" fill="white"/>
<path id="Vector_3" d="M127.485 22.0287C127.141 21.2251 126.683 20.5339 126.1 19.9607C125.517 19.3875 124.835 18.9379 124.049 18.6176C123.263 18.2973 122.43 18.1343 121.545 18.1343H116.151C115.797 18.1343 115.495 17.9938 115.24 17.7128C114.985 17.4319 114.86 17.0947 114.86 16.7013C114.86 16.3079 114.985 15.9932 115.24 15.7179C115.495 15.4425 115.797 15.3077 116.151 15.3077H126.652V9.73306H116.151C115.25 9.73306 114.412 9.91289 113.626 10.2782C112.84 10.6434 112.158 11.138 111.575 11.7617C110.992 12.3911 110.534 13.1273 110.201 13.9758C109.862 14.8244 109.696 15.7291 109.696 16.7013C109.696 17.6735 109.862 18.5782 110.201 19.4268C110.534 20.2754 110.992 21.0171 111.575 21.6521C112.158 22.2872 112.84 22.7873 113.626 23.1582C114.412 23.5291 115.25 23.7089 116.151 23.7089H121.545C121.899 23.7089 122.201 23.7707 122.456 23.8943C122.711 24.018 122.836 24.2765 122.836 24.6755C122.836 25.0745 122.711 25.3835 122.456 25.6589C122.201 25.9342 121.899 26.0691 121.545 26.0691H109.701V31.6437H121.545C122.43 31.6437 123.268 31.4639 124.049 31.0986C124.835 30.739 125.517 30.2388 126.1 29.6038C126.683 28.9688 127.146 28.2326 127.485 27.3897C127.828 26.5468 127.995 25.642 127.995 24.6755C127.995 23.7089 127.823 22.8379 127.485 22.0343V22.0287Z" fill="white"/>
<path id="Vector_4" d="M105.567 12.0708C104.625 11.0593 103.521 10.2782 102.262 9.72183C101.002 9.17111 99.6585 8.89014 98.2269 8.89014C97.5709 8.89014 96.915 8.98005 96.2694 9.15426C95.6239 9.33408 94.9991 9.57572 94.4005 9.87918C93.7966 10.1883 93.2187 10.5535 92.6617 10.975C92.1046 11.3965 91.5944 11.8516 91.1259 12.3293L89.0591 9.68811H87.8045V39.9944H93.0261V30.1602C93.4165 30.4074 93.8278 30.6434 94.2495 30.8795C94.6712 31.1099 95.1033 31.3178 95.5406 31.5032C95.9779 31.6887 96.4204 31.8348 96.8681 31.9416C97.3158 32.0483 97.7687 32.1045 98.2269 32.1045C99.6585 32.1045 101.002 31.8404 102.262 31.3065C103.521 30.7727 104.62 30.0028 105.567 29.0025C106.51 27.9966 107.254 26.7772 107.795 25.333C108.342 23.8944 108.613 22.2703 108.613 20.4664C108.613 18.6625 108.342 17.1509 107.795 15.7235C107.249 14.2961 106.51 13.0767 105.567 12.0652V12.0708ZM103.006 22.9109C102.735 23.6471 102.366 24.2765 101.897 24.7991C101.429 25.3161 100.877 25.7207 100.247 26.0073C99.6117 26.2939 98.9453 26.44 98.2321 26.44C97.5189 26.44 96.8577 26.2939 96.2278 26.0073C95.603 25.7207 95.0564 25.3161 94.5879 24.7991C94.1193 24.2821 93.7497 23.6527 93.479 22.9109C93.2083 22.1748 93.0729 21.3599 93.0729 20.472C93.0729 19.5842 93.2083 18.7075 93.479 17.9713C93.7497 17.2352 94.1193 16.6058 94.5879 16.0944C95.0564 15.583 95.603 15.1897 96.2278 14.9143C96.8525 14.6389 97.5241 14.5041 98.2321 14.5041C98.9401 14.5041 99.6117 14.6389 100.247 14.9143C100.877 15.1897 101.429 15.583 101.897 16.0944C102.366 16.6058 102.735 17.2296 103.006 17.9713C103.277 18.7075 103.412 19.5392 103.412 20.472C103.412 21.4049 103.277 22.1748 103.006 22.9109Z" fill="white"/>
</g>
<g id="Group_5">
<g id="Group_6">
<path id="Vector_5" d="M21.7767 31.6381H15.9512L5.45069 12.2956V31.6381H0V2.25345H5.82552L16.326 21.6184V2.25345H21.7715V31.6381H21.7767Z" fill="white"/>
<path id="Vector_6" d="M32.5167 26.2714C32.7197 26.3389 32.9228 26.3838 33.1258 26.4063C33.3288 26.4288 33.5319 26.44 33.7349 26.44C34.2399 26.44 34.7292 26.367 35.1978 26.2152C35.6663 26.0635 36.1036 25.85 36.5149 25.569C36.9262 25.288 37.2906 24.9452 37.6134 24.5462C37.9361 24.1472 38.1964 23.6977 38.3995 23.2031L42.1947 27.3223C41.7157 28.0584 41.1587 28.7215 40.5339 29.3116C39.9092 29.9017 39.2324 30.3962 38.5036 30.8064C37.7748 31.2166 37.0095 31.5257 36.2078 31.7392C35.406 31.9528 34.5783 32.0539 33.7297 32.0539C32.298 32.0539 30.9549 31.7673 29.695 31.1942C28.4352 30.621 27.3367 29.823 26.3892 28.7946C25.4469 27.7718 24.7025 26.5524 24.1611 25.1363C23.6144 23.7201 23.3437 22.1691 23.3437 20.4777C23.3437 18.7862 23.6144 17.1565 24.1611 15.7235C24.7077 14.2905 25.4469 13.0655 26.3892 12.0539C27.3315 11.0424 28.4352 10.2557 29.695 9.69935C30.9549 9.13739 32.298 8.85641 33.7297 8.85641C34.5783 8.85641 35.406 8.96319 36.2182 9.18235C37.0251 9.40151 37.7956 9.71621 38.5244 10.1264C39.2533 10.5367 39.93 11.0368 40.5652 11.6325C41.1951 12.2281 41.7574 12.8913 42.2363 13.633L32.5167 26.277V26.2714ZM35.177 14.7345C34.9375 14.6389 34.698 14.5771 34.4637 14.549C34.2295 14.5209 33.9848 14.5097 33.7349 14.5097C33.0269 14.5097 32.3605 14.6502 31.7306 14.9312C31.1007 15.2121 30.5592 15.6111 30.0959 16.1281C29.6326 16.6451 29.2682 17.2745 29.0026 18.0051C28.7371 18.7356 28.6018 19.5617 28.6018 20.472C28.6018 20.6743 28.6122 20.9104 28.6278 21.1689C28.6434 21.4274 28.6799 21.6915 28.7215 21.9556C28.7632 22.2197 28.8204 22.4782 28.8829 22.7255C28.9454 22.9727 29.0287 23.1919 29.1276 23.383L35.1666 14.7345H35.177Z" fill="white"/>
<path id="Vector_7" d="M56.3185 9.5701L53.6218 13.7735L56.6049 18.3759L62.6595 9.57572H56.3185V9.5701ZM56.5216 22.3602L53.6218 27.1424L56.3185 31.6325H62.6595L56.5216 22.3546V22.3602Z" fill="white"/>
</g>
<path id="Vector_8" d="M52.2787 15.864L48.1972 9.5701H41.8563L49.28 20.3934L41.8563 31.6381H48.1972L52.2787 24.9227L55.1212 20.236L52.2787 15.864Z" fill="#00FAFF"/>
</g>
</g>
<path id="Vector_9" d="M85.7377 1.09581C85.4201 0.75864 85.0505 0.494521 84.6288 0.297836C84.2071 0.101152 83.7542 0 83.27 0C82.7859 0 82.3381 0.101152 81.9113 0.297836C81.4896 0.494521 81.1199 0.76426 80.8076 1.09581C80.4952 1.42737 80.2505 1.82636 80.0683 2.28154C79.8861 2.73672 79.7924 3.22001 79.7924 3.72577C79.7924 4.23153 79.8861 4.73167 80.0683 5.18123C80.2505 5.6308 80.5004 6.02416 80.8076 6.36134C81.1199 6.69851 81.4844 6.96263 81.9113 7.15931C82.3329 7.356 82.7859 7.45715 83.27 7.45715C83.7542 7.45715 84.2019 7.356 84.6288 7.15931C85.0505 6.96263 85.4253 6.69289 85.7377 6.36134C86.0552 6.02416 86.3051 5.63642 86.4873 5.18123C86.6695 4.73167 86.7633 4.24276 86.7633 3.72577C86.7633 3.20877 86.6695 2.73672 86.4873 2.28154C86.3051 1.82636 86.0552 1.42737 85.7377 1.09581Z" fill="#00FAFF"/>
</g>
<path id="Vector_10" d="M120.285 4.91711H117.416V36.2967H120.285V4.91711Z" fill="white"/>
</g>
</g>
</g>
<defs>
<clipPath id="clip0_1_27">
<rect width="128" height="40" fill="white"/>
</clipPath>
</defs>
</svg>
