<svg width="18" height="16" viewBox="0 0 18 16" fill="none" xmlns="http://www.w3.org/2000/svg">
<path id="Vector" d="M18 1.9006C17.3381 2.21303 16.6177 2.43788 15.8757 2.52545C16.6461 2.02471 17.223 1.23362 17.4981 0.300601C16.7753 0.771108 15.9834 1.10104 15.1576 1.27575C14.8124 0.872024 14.395 0.5504 13.9312 0.330915C13.4675 0.11143 12.9675 -0.00121132 12.4622 9.82343e-06C10.418 9.82343e-06 8.77395 1.81303 8.77395 4.03788C8.77395 4.3503 8.80856 4.66273 8.8648 4.96332C5.80387 4.78817 3.07391 3.18817 1.25898 0.738471C0.928285 1.3565 0.754987 2.06019 0.75712 2.77634C0.75712 4.17752 1.40824 5.41302 2.40115 6.13965C1.81602 6.11444 1.24458 5.93846 0.733325 5.62604V5.67575C0.733325 7.63787 2.00096 9.26391 3.69042 9.63787C3.37321 9.72803 3.04688 9.77415 2.71914 9.77515C2.47903 9.77515 2.25189 9.74912 2.02259 9.71361C2.48984 11.3136 3.8505 12.4757 5.47074 12.5136C4.2031 13.6 2.61531 14.2391 0.891239 14.2391C0.581901 14.2391 0.296359 14.2272 0 14.1894C1.63538 15.3373 3.57577 16 5.66542 16C12.4492 16 16.1613 9.85089 16.1613 4.51362C16.1613 4.33847 16.1613 4.16332 16.1505 3.98817C16.8686 3.41303 17.4981 2.7006 18 1.9006Z" fill="#FAFAFA"/>
</svg>
